<svg xmlns="http://www.w3.org/2000/svg" viewBox="0 0 693.18 438.17"><defs><style>.cls-1{fill:#92e3a9;}.cls-10,.cls-2,.cls-5,.cls-6,.cls-7,.cls-8{fill:#fff;}.cls-2{opacity:0.8;}.cls-3{fill:none;}.cls-10,.cls-3,.cls-9{stroke:#263238;stroke-miterlimit:10;}.cls-4,.cls-9{fill:#263238;}.cls-5{opacity:0.31;}.cls-6{opacity:0.5;}.cls-7{opacity:0.33;}</style></defs><g id="Background_Simple" data-name="Background Simple"><path class="cls-1" d="M704.18,191.6c-7.88-28.38-60.41,2.49-60.41,2.49l13.75-24.94a55.07,55.07,0,0,0,4.35-7.89c6.91-15.44,6.82-32,0-46.34C660,106.19,654.25,93.71,638.52,80,608.75,54.15,508.94,36.45,480,40.38s26.27,16.09,26.27,16.09l-4.37,0c-84.15-8.92-168.82-10.07-252.83-8.33-21.07.43-42.2,1.13-62.83,4.68-5.93,1-12.31,2.59-15.85,7.38C154.75,81.43,218.9,83.5,229,83.09c-44.07,5.73-93,7.49-134,24.52-5.71,2.37-11.38,5.19-15.69,9.58s-7.11,10.64-6.14,16.91C76,152.29,101,157.69,115.24,161.73c0,0-81.72,54.34-72.09,81.92a96.66,96.66,0,0,0,20.91,35.22A135.83,135.83,0,0,0,48,303.73c-2.61,5.34-6,12.65-3.11,18.8,14.88,31.32,240.61,138.86,421.49,108.16,48.05-8.15,95.91-21.63,138-45.47,41.92-23.73,84.64-62.93,95.2-112.35.35-1.63.6-3.21.78-4.75C707,245.35,710.78,215.34,704.18,191.6Z" transform="translate(-27.51 -39.84)"/><path class="cls-2" d="M704.18,191.6c-7.88-28.38-60.41,2.49-60.41,2.49l13.75-24.94a55.07,55.07,0,0,0,4.35-7.89c6.91-15.44,6.82-32,0-46.34C660,106.19,654.25,93.71,638.52,80,608.75,54.15,508.94,36.45,480,40.38s26.27,16.09,26.27,16.09l-4.37,0c-84.15-8.92-168.82-10.07-252.83-8.33-21.07.43-42.2,1.13-62.83,4.68-5.93,1-12.31,2.59-15.85,7.38C154.75,81.43,218.9,83.5,229,83.09c-44.07,5.73-93,7.49-134,24.52-5.71,2.37-11.38,5.19-15.69,9.58s-6,10.56-6.14,16.91c-.4,16.77,26.56,23,42.11,27.63,0,0-81.72,54.34-72.09,81.92a96.66,96.66,0,0,0,20.91,35.22A135.83,135.83,0,0,0,48,303.73c-2.61,5.34-6,12.65-3.11,18.8,14.88,31.32,240.61,138.86,421.49,108.16,48.05-8.15,95.91-21.63,138-45.47,41.92-23.73,84.64-62.93,95.2-112.35.35-1.63.6-3.21.78-4.75C707,245.35,710.78,215.34,704.18,191.6Z" transform="translate(-27.51 -39.84)"/></g><g id="Birds"><path class="cls-3" d="M558,160.59s1-3.06,6.12-4.08,11.23,4.6,11.23,4.6,4.08-8.17,8.16-8.68,8.67,3.06,8.67,3.06" transform="translate(-27.51 -39.84)"/><path class="cls-3" d="M544.69,180s1-3.06,6.13-4.08S562,180.49,562,180.49s4.08-8.16,8.16-8.67,8.68,3.06,8.68,3.06" transform="translate(-27.51 -39.84)"/><path class="cls-3" d="M593.16,180.1s.78-2.33,4.66-3.1,8.55,3.49,8.55,3.49,3.11-6.21,6.21-6.6,6.6,2.33,6.6,2.33" transform="translate(-27.51 -39.84)"/><path class="cls-3" d="M649.86,200.65s.51-1.53,3-2,5.61,2.29,5.61,2.29,2-4.07,4.07-4.33,4.33,1.53,4.33,1.53" transform="translate(-27.51 -39.84)"/></g><g id="Clouds"><path class="cls-3" d="M378.14,155.19c-5.27-23.69-32.58-41.34-56.38-38a29.73,29.73,0,0,0-16.15,7.16C299.53,130,301,136.33,298,143.26a6.44,6.44,0,0,1-4.53,4c-5.92,1-10.69-4.88-16.68-4.93-4.48,0-10.21,2.45-12.71,6.32-2.33,3.6-.7,9.89-4.89,12.28-4.69,2.67-10.38-2.41-15.45-.57-6.29,2.29-3.43,6.86-5.72,9.72s-6.86,1.72-13.16,1.15-11.44,6.86-11.44,6.86H411.89s1.72-2.86-5.72-14.3-17.73-3.43-22.31-3.43S378.14,155.2,378.14,155.19Z" transform="translate(-27.51 -39.84)"/><path class="cls-3" d="M433.42,117.14c-2.11-9.5-13.07-16.58-22.61-15.22a11.88,11.88,0,0,0-6.49,2.87c-2.43,2.24-1.86,4.79-3.06,7.57a2.63,2.63,0,0,1-1.82,1.6c-2.38.4-4.29-2-6.69-2a6.49,6.49,0,0,0-5.1,2.53c-.94,1.45-.28,4-2,4.93-1.87,1.07-4.16-1-6.19-.23-2.53.92-1.38,2.75-2.3,3.9s-2.75.69-5.28.46-4.59,2.76-4.59,2.76H447s.69-1.15-2.29-5.74-7.12-1.38-8.95-1.38S433.42,117.15,433.42,117.14Z" transform="translate(-27.51 -39.84)"/><path class="cls-3" d="M603.33,233.6c-2.12-9.5-13.07-16.58-22.62-15.23a11.9,11.9,0,0,0-6.48,2.88c-2.44,2.24-1.86,4.79-3.07,7.56a2.58,2.58,0,0,1-1.82,1.6c-2.37.41-4.29-2-6.69-2a6.46,6.46,0,0,0-5.1,2.53c-.93,1.44-.28,4-2,4.93-1.88,1.07-4.17-1-6.2-.23-2.52.92-1.38,2.75-2.29,3.9s-2.76.69-5.28.46-4.59,2.75-4.59,2.75h79.64s.69-1.15-2.3-5.74-7.11-1.37-9-1.37S603.33,233.6,603.33,233.6Z" transform="translate(-27.51 -39.84)"/><path class="cls-3" d="M475.58,223.2c-3.24-14.55-20-25.4-34.64-23.32a18.31,18.31,0,0,0-9.93,4.4c-3.74,3.43-2.85,7.33-4.7,11.59a4,4,0,0,1-2.78,2.45c-3.64.62-6.57-3-10.25-3-2.76,0-6.28,1.5-7.81,3.88-1.43,2.21-.44,6.08-3,7.55-2.88,1.64-6.38-1.49-9.49-.35-3.87,1.4-2.11,4.22-3.52,6s-4.22,1.06-8.08.71-7,4.21-7,4.21h122s1.05-1.75-3.52-8.78-10.89-2.11-13.71-2.11S475.58,223.21,475.58,223.2Z" transform="translate(-27.51 -39.84)"/></g><g id="Mountains"><path class="cls-4" d="M504.27,390.9s-7.29-7.55-5.25-7.33,5.88,5.88,5.88,5.88.05-12.45,1.87-9.73-.41,9.78-.41,9.78,5.2-8.11,5.19-6.79c0,4.1-4,7.31-4,7.31s8.33-6.17,7-3.67-6.69,4.87-6.69,4.87,9.6-1.94,6.19-.57-6.65,2.3-6.65,2.3h-2.66s-9.06-4.55-5.65-3.87A16.85,16.85,0,0,1,504.27,390.9Z" transform="translate(-27.51 -39.84)"/><path class="cls-4" d="M600.56,367.26s-5.68-5.88-4.08-5.7,4.57,4.57,4.57,4.57,0-9.69,1.46-7.57-.33,7.61-.33,7.61,4.05-6.31,4-5.28c0,3.19-3.12,5.69-3.12,5.69s6.48-4.81,5.42-2.86-5.2,3.79-5.2,3.79,7.47-1.51,4.81-.45-5.18,1.79-5.18,1.79h-2.06s-7.06-3.54-4.4-3A13.31,13.31,0,0,1,600.56,367.26Z" transform="translate(-27.51 -39.84)"/><path class="cls-4" d="M690,346.17s-5.67-5.88-4.08-5.7,4.57,4.57,4.57,4.57,0-9.69,1.46-7.57-.32,7.61-.32,7.61,4-6.31,4-5.28c0,3.19-3.12,5.69-3.12,5.69s6.48-4.8,5.42-2.86-5.21,3.79-5.21,3.79,7.47-1.51,4.82-.45-5.18,1.79-5.18,1.79h-2.07s-7-3.54-4.4-3A13.17,13.17,0,0,1,690,346.17Z" transform="translate(-27.51 -39.84)"/><path class="cls-1" d="M576,394.34s-6.78-7-4.87-6.81,5.46,5.46,5.46,5.46,0-11.57,1.74-9S578,393,578,393s4.84-7.54,4.83-6.31c0,3.81-3.73,6.79-3.73,6.79s7.74-5.73,6.47-3.41-6.21,4.53-6.21,4.53,8.92-1.8,5.75-.53-6.19,2.13-6.19,2.13h-2.46s-8.43-4.22-5.26-3.59A15.93,15.93,0,0,1,576,394.34Z" transform="translate(-27.51 -39.84)"/><polyline class="cls-3" points="414.38 324.04 354.42 256.81 341.28 267.32 275.54 168.34 218.31 181.09 201.2 149.12 184.56 148.24 153.04 86.08 105.89 129.09 83.16 120.98 0.36 205.41"/><line class="cls-3" x1="425.63" y1="336.65" x2="419.34" y2="329.6"/><line class="cls-3" x1="187.58" y1="189.31" x2="182.62" y2="190.65"/><line class="cls-3" x1="218.19" y1="181.02" x2="193.16" y2="187.8"/><polyline class="cls-3" points="123.75 152.24 137.77 131.55 136.82 124.45 152.91 91.8"/><line class="cls-3" x1="117.9" y1="160.89" x2="121.41" y2="155.7"/><line class="cls-3" x1="96.14" y1="173.13" x2="73.41" y2="203.95"/><polyline class="cls-3" points="84.3 124.45 89.98 137.22 102.75 147.64 101.33 166.09 98.24 170.29"/><polyline class="cls-3" points="201.2 149.12 189.35 160.41 185.09 153.31"/><polyline class="cls-3" points="679.5 275.6 587.48 210.7 559.55 250.13 525.04 238.63 471.64 313.39 437.13 306 419.88 320.79"/><polyline class="cls-3" points="587.48 210.7 576.54 258.79 563.64 253.14"/><polyline class="cls-3" points="525.34 241.45 498.32 320.07 479.78 316.85"/></g><g id="Trees_2" data-name="Trees 2"><path class="cls-1" d="M551.6,275.67a43.21,43.21,0,0,0-43.36,43.06,42.74,42.74,0,0,0,11,28.7,33.11,33.11,0,0,1,15.19,1.39,41.56,41.56,0,0,1,14.74,8.61h3.89a41.65,41.65,0,0,1,14.75-8.61,32.88,32.88,0,0,1,16-1.26A42.75,42.75,0,0,0,595,318.73,43.22,43.22,0,0,0,551.6,275.67Z" transform="translate(-27.51 -39.84)"/><path class="cls-4" d="M571.78,336q-2,1-4,2a39.3,39.3,0,0,0-3.79,2.34c-.45.31-.89.64-1.34,1l7.11-13.23-9.75,15.26c-1,.8-2,1.61-2.91,2.44q-2.35,2-4.6,4.2l-.5-14.35,10.2-15.53L552,333.45l-.45-12.84L550.79,335h0l-.73,14.4c-1.31-1.23-2.63-2.43-4-3.61-1.07-.93-2.16-1.85-3.27-2.73l-9.22-15.75,6.77,13.89c-.39-.28-.77-.57-1.17-.84a39.3,39.3,0,0,0-3.79-2.34c-1.3-.69-2.63-1.36-4-2a82.23,82.23,0,0,0-8.2-3.47,80.82,80.82,0,0,1,7.9,4q1.92,1.08,3.78,2.22a36.51,36.51,0,0,1,3.51,2.5,75.28,75.28,0,0,1,6.37,5.72c1.76,1.75,3.48,3.57,5.12,5.4L549,370.61h4.27l-.61-17.54c1.83-2.1,3.78-4.16,5.78-6.15a75.28,75.28,0,0,1,6.37-5.72,36.51,36.51,0,0,1,3.51-2.5q1.86-1.14,3.78-2.22a81,81,0,0,1,7.91-4A81.41,81.41,0,0,0,571.78,336Z" transform="translate(-27.51 -39.84)"/><path class="cls-1" d="M218.71,334.76c0,12.37-6.94,13.3-15.5,13.3s-15.5-.93-15.5-13.3,6.94-38.24,15.5-38.24S218.71,322.38,218.71,334.76Z" transform="translate(-27.51 -39.84)"/><polygon class="cls-4" points="180.94 300.54 178.38 300.71 185.06 296.21 180.29 298.62 180.94 296.74 178.76 299.39 176.21 300.69 176 291.8 177.36 288.51 175.97 290.36 175.85 285.21 180.1 279.55 175.82 283.93 175.56 272.59 175.33 279.84 172.61 276.81 175.29 281.24 174.93 292.73 172.56 291.18 170.4 287.35 171.26 290.34 167.02 287.56 174.88 294.34 173.69 332.07 176.92 332.07 176.24 302.16 176.99 301.65 180.94 300.54"/><path class="cls-1" d="M635.52,292.15c0,24.17-13.56,26-30.28,26s-30.28-1.83-30.28-26,13.55-74.72,30.28-74.72S635.52,268,635.52,292.15Z" transform="translate(-27.51 -39.84)"/><path class="cls-5" d="M635.52,292.15c0,24.17-13.56,26-30.28,26s-30.28-1.83-30.28-26,13.55-74.72,30.28-74.72S635.52,268,635.52,292.15Z" transform="translate(-27.51 -39.84)"/><polygon class="cls-4" points="587.97 263.28 582.96 263.63 596 254.83 586.69 259.54 587.97 255.86 583.71 261.05 578.71 263.57 578.31 246.21 580.96 239.79 578.25 243.4 578.02 233.34 586.32 222.27 577.96 230.82 577.46 208.67 577.01 222.85 571.68 216.91 576.92 225.57 576.21 248.04 571.58 245.01 567.36 237.52 569.05 243.35 560.76 237.93 576.12 251.18 573.79 324.9 580.11 324.9 578.78 266.45 580.24 265.46 587.97 263.28"/><path class="cls-1" d="M700.34,301.66c0,12.38-6.94,13.31-15.5,13.31s-15.5-.93-15.5-13.31,6.94-38.23,15.5-38.23S700.34,289.29,700.34,301.66Z" transform="translate(-27.51 -39.84)"/><path class="cls-6" d="M700.34,301.66c0,12.38-6.94,13.31-15.5,13.31s-15.5-.93-15.5-13.31,6.94-38.23,15.5-38.23S700.34,289.29,700.34,301.66Z" transform="translate(-27.51 -39.84)"/><polygon class="cls-4" points="662.57 267.44 660.01 267.62 666.68 263.12 661.91 265.53 662.57 263.64 660.39 266.3 657.83 267.59 657.63 258.71 658.98 255.42 657.6 257.27 657.48 252.12 661.73 246.45 657.45 250.83 657.19 239.49 656.96 246.75 654.24 243.71 656.92 248.14 656.56 259.64 654.18 258.09 652.02 254.26 652.89 257.24 648.65 254.47 656.5 261.25 655.32 298.98 658.55 298.98 657.87 269.06 658.61 268.56 662.57 267.44"/><path class="cls-1" d="M68.67,291.2c0,12.37-6.94,13.31-15.5,13.31s-15.5-.94-15.5-13.31S44.61,253,53.17,253,68.67,278.83,68.67,291.2Z" transform="translate(-27.51 -39.84)"/><path class="cls-6" d="M68.67,291.2c0,12.37-6.94,13.31-15.5,13.31s-15.5-.94-15.5-13.31S44.61,253,53.17,253,68.67,278.83,68.67,291.2Z" transform="translate(-27.51 -39.84)"/><polygon class="cls-4" points="30.9 256.98 28.34 257.16 35.01 252.66 30.25 255.07 30.9 253.18 28.72 255.84 26.16 257.13 25.96 248.24 27.31 244.96 25.93 246.81 25.81 241.65 30.06 235.99 25.78 240.37 25.52 229.03 25.29 236.29 22.57 233.25 25.25 237.68 24.89 249.18 22.51 247.63 20.35 243.8 21.22 246.78 16.98 244.01 24.84 250.78 23.64 288.51 26.88 288.51 26.2 258.6 26.94 258.1 30.9 256.98"/><path class="cls-1" d="M145.46,263.14A43.21,43.21,0,0,0,102.1,306.2a42.77,42.77,0,0,0,11,28.71,33.07,33.07,0,0,1,15.19,1.38,41.56,41.56,0,0,1,14.74,8.61H147a41.65,41.65,0,0,1,14.75-8.61,33.13,33.13,0,0,1,16-1.26,42.74,42.74,0,0,0,11.15-28.83A43.22,43.22,0,0,0,145.46,263.14Z" transform="translate(-27.51 -39.84)"/><path class="cls-7" d="M145.46,263.14A43.21,43.21,0,0,0,102.1,306.2a42.77,42.77,0,0,0,11,28.71,33.07,33.07,0,0,1,15.19,1.38,41.56,41.56,0,0,1,14.74,8.61H147a41.65,41.65,0,0,1,14.75-8.61,33.13,33.13,0,0,1,16-1.26,42.74,42.74,0,0,0,11.15-28.83A43.22,43.22,0,0,0,145.46,263.14Z" transform="translate(-27.51 -39.84)"/><path class="cls-4" d="M165.64,323.48q-2,1-4,2a37.33,37.33,0,0,0-3.79,2.33l-1.34,1,7.11-13.24-9.75,15.27q-1.49,1.19-2.91,2.43c-1.57,1.37-3.1,2.76-4.6,4.2l-.5-14.35,10.2-15.53-10.27,13.36-.45-12.85-.73,14.37h0l-.73,14.41c-1.31-1.24-2.63-2.44-4-3.62q-1.6-1.39-3.27-2.73l-9.22-15.75,6.77,13.9c-.39-.29-.77-.57-1.17-.85a37.33,37.33,0,0,0-3.79-2.33c-1.3-.7-2.63-1.37-4-2a82.23,82.23,0,0,0-8.2-3.47A78.57,78.57,0,0,1,125,324q1.92,1.08,3.78,2.23a36.42,36.42,0,0,1,3.51,2.49,77,77,0,0,1,6.37,5.72c1.76,1.75,3.48,3.57,5.12,5.41l-.93,18.28h4.27l-.61-17.54c1.83-2.1,3.78-4.16,5.78-6.15a77,77,0,0,1,6.37-5.72,36.42,36.42,0,0,1,3.51-2.49Q164,325,165.94,324a78.73,78.73,0,0,1,7.91-3.94A81.41,81.41,0,0,0,165.64,323.48Z" transform="translate(-27.51 -39.84)"/></g><g id="Text"><path class="cls-4" d="M265.84,391.65V352H214.19v-25.4l44.3-105h37.79V327.2h16.37V352H296.28v39.68Zm-26-64.45h26V255Z" transform="translate(-27.51 -39.84)"/><path class="cls-4" d="M373.53,391.74q-15.33,0-25.4-6.3A39.14,39.14,0,0,1,333,368.12q-5-11-5-25.5V266.41q0-14.9,4.82-26.13a37.69,37.69,0,0,1,14.91-17.53q10.08-6.3,25.82-6.3,15.54,0,25.51,6.3a38,38,0,0,1,14.8,17.53q4.82,11.22,4.82,26.13v76.21q0,14.47-5,25.5a39.14,39.14,0,0,1-15.12,17.32Q388.43,391.74,373.53,391.74Zm0-28.55q5.67,0,8.19-3.57a20.6,20.6,0,0,0,3.36-8.5,55.72,55.72,0,0,0,.84-9.13V267a67,67,0,0,0-.74-9.66,20.4,20.4,0,0,0-3.25-8.71q-2.52-3.66-8.4-3.67t-8.5,3.67a19.64,19.64,0,0,0-3.36,8.71,67,67,0,0,0-.74,9.66V342a54.64,54.64,0,0,0,.84,9.13,19,19,0,0,0,3.57,8.5Q368.07,363.19,373.53,363.19Z" transform="translate(-27.51 -39.84)"/><path class="cls-4" d="M487.94,391.65V352H436.3v-25.4l44.29-105h37.79V327.2h16.37V352H518.38v39.68Zm-26-64.45h26V255Z" transform="translate(-27.51 -39.84)"/></g><g id="Floor"><path class="cls-8" d="M720.11,309.64c-65.38,42.86-194.5,72-343.1,72-153.16,0-285.63-31-348.94-76V478h692Z" transform="translate(-27.51 -39.84)"/><path class="cls-3" d="M705.91,318.19c-68.82,38.14-190.4,63.48-328.9,63.48-153.16,0-285.63-31-348.94-76" transform="translate(-27.51 -39.84)"/><path class="cls-3" d="M720.41,309.44q-4.41,2.91-9.23,5.74" transform="translate(-27.51 -39.84)"/></g><g id="Trees_1" data-name="Trees 1"><path class="cls-1" d="M678.37,299.65c0,25.28-14.18,27.19-31.66,27.19S615,324.93,615,299.65s14.18-78.12,31.67-78.12S678.37,274.37,678.37,299.65Z" transform="translate(-27.51 -39.84)"/><polygon class="cls-4" points="629.9 271.29 624.67 271.65 638.31 262.45 628.57 267.38 629.9 263.53 625.45 268.95 620.23 271.59 619.81 253.44 622.58 246.72 619.74 250.5 619.5 239.97 628.18 228.4 619.44 237.35 618.91 214.18 618.45 229.01 612.88 222.8 618.36 231.86 617.62 255.34 612.77 252.18 608.35 244.35 610.12 250.45 601.46 244.78 617.51 258.63 615.08 335.72 621.69 335.72 620.29 274.6 621.82 273.57 629.9 271.29"/><path class="cls-4" d="M644.57,376.24s-11.68-12.11-8.4-11.75,9.41,9.42,9.41,9.42.09-20,3-15.59-.67,15.68-.67,15.68,8.33-13,8.32-10.88c-.06,6.57-6.43,11.71-6.43,11.71S663.16,364.94,661,369s-10.72,7.8-10.72,7.8,15.39-3.11,9.92-.92-10.67,3.69-10.67,3.69h-4.25s-14.53-7.29-9.06-6.2A26.87,26.87,0,0,1,644.57,376.24Z" transform="translate(-27.51 -39.84)"/><path class="cls-4" d="M84.73,361.2s-10.11-10.47-7.28-10.15,8.15,8.14,8.15,8.14.07-17.26,2.6-13.48-.58,13.55-.58,13.55,7.21-11.24,7.19-9.41c0,5.69-5.55,10.13-5.55,10.13s11.54-8.55,9.65-5.08-9.27,6.74-9.27,6.74,13.31-2.68,8.58-.79S89,364,89,364H85.31s-12.56-6.3-7.84-5.36A23.76,23.76,0,0,1,84.73,361.2Z" transform="translate(-27.51 -39.84)"/><path class="cls-1" d="M121.26,285.87c0,25.31-14.19,27.22-31.7,27.22s-31.7-1.91-31.7-27.22,14.2-78.21,31.7-78.21S121.26,260.56,121.26,285.87Z" transform="translate(-27.51 -39.84)"/><polygon class="cls-4" points="72.77 257.52 67.53 257.88 81.19 248.67 71.43 253.6 72.77 249.75 68.31 255.18 63.08 257.82 62.67 239.65 65.44 232.93 62.6 236.71 62.36 226.17 71.05 214.59 62.3 223.54 61.77 200.35 61.3 215.19 55.73 208.98 61.21 218.05 60.47 241.56 55.62 238.39 51.2 230.55 52.97 236.66 44.3 230.98 60.37 244.84 57.93 322.02 64.55 322.02 63.15 260.83 64.68 259.8 72.77 257.52"/></g><g id="Plants"><path class="cls-4" d="M195.39,387.51s-10.11-10.47-7.27-10.15,8.15,8.14,8.15,8.14.07-17.26,2.59-13.48-.58,13.55-.58,13.55,7.21-11.24,7.2-9.41c0,5.69-5.56,10.13-5.56,10.13s11.55-8.55,9.66-5.08S200.3,388,200.3,388s13.31-2.68,8.58-.79-9.23,3.19-9.23,3.19H196s-12.57-6.3-7.84-5.36A23.61,23.61,0,0,1,195.39,387.51Z" transform="translate(-27.51 -39.84)"/><path class="cls-4" d="M249,410.46s-10.11-10.47-7.27-10.15,8.15,8.14,8.15,8.14.07-17.26,2.59-13.48-.58,13.55-.58,13.55,7.21-11.24,7.2-9.4c-.05,5.68-5.56,10.12-5.56,10.12s11.55-8.55,9.66-5.08S254,410.9,254,410.9s13.31-2.68,8.58-.79-9.23,3.19-9.23,3.19h-3.67s-12.57-6.3-7.84-5.36A23.61,23.61,0,0,1,249,410.46Z" transform="translate(-27.51 -39.84)"/><path class="cls-4" d="M392.94,395.05s-7.29-7.55-5.24-7.32,5.87,5.87,5.87,5.87.06-12.45,1.88-9.72-.42,9.78-.42,9.78,5.2-8.12,5.19-6.79c0,4.1-4,7.3-4,7.3s8.33-6.17,7-3.66-6.69,4.86-6.69,4.86,9.6-1.94,6.18-.57-6.65,2.3-6.65,2.3h-2.65s-9.07-4.55-5.66-3.87A17.18,17.18,0,0,1,392.94,395.05Z" transform="translate(-27.51 -39.84)"/><path class="cls-4" d="M676,377s-5.67-5.88-4.08-5.7,4.57,4.57,4.57,4.57,0-9.69,1.46-7.57-.33,7.61-.33,7.61,4-6.31,4-5.28c0,3.19-3.12,5.68-3.12,5.68s6.48-4.8,5.42-2.85-5.2,3.78-5.2,3.78,7.47-1.5,4.81-.44-5.18,1.79-5.18,1.79H676.3s-7.06-3.54-4.4-3A13.13,13.13,0,0,1,676,377Z" transform="translate(-27.51 -39.84)"/><path class="cls-1" d="M293.9,395.09s-10.11-10.47-7.27-10.15,8.15,8.14,8.15,8.14.07-17.26,2.59-13.48-.57,13.56-.57,13.56,7.21-11.25,7.19-9.41c-.05,5.68-5.55,10.12-5.55,10.12s11.54-8.55,9.65-5.08-9.27,6.74-9.27,6.74,13.3-2.68,8.57-.79-9.22,3.19-9.22,3.19h-3.68s-12.57-6.3-7.84-5.36A23.61,23.61,0,0,1,293.9,395.09Z" transform="translate(-27.51 -39.84)"/><path class="cls-1" d="M221,388.14s-6.78-7-4.87-6.82,5.46,5.47,5.46,5.47,0-11.58,1.74-9-.39,9.09-.39,9.09,4.84-7.55,4.83-6.31c0,3.81-3.73,6.79-3.73,6.79s7.74-5.74,6.47-3.41-6.21,4.52-6.21,4.52,8.92-1.8,5.75-.53-6.19,2.14-6.19,2.14h-2.46s-8.43-4.23-5.26-3.59A15.61,15.61,0,0,1,221,388.14Z" transform="translate(-27.51 -39.84)"/><path class="cls-1" d="M136.26,415.88s-6.78-7-4.87-6.81,5.46,5.46,5.46,5.46.05-11.58,1.74-9-.39,9.09-.39,9.09S143,407,143,408.27c0,3.81-3.73,6.79-3.73,6.79s7.74-5.74,6.48-3.41-6.22,4.52-6.22,4.52,8.92-1.8,5.75-.53-6.19,2.14-6.19,2.14h-2.46s-8.43-4.23-5.26-3.59A15.61,15.61,0,0,1,136.26,415.88Z" transform="translate(-27.51 -39.84)"/><path class="cls-1" d="M363,417.24s-6.78-7-4.88-6.81,5.47,5.46,5.47,5.46.05-11.58,1.74-9-.39,9.09-.39,9.09,4.84-7.54,4.82-6.31c0,3.81-3.72,6.79-3.72,6.79s7.74-5.74,6.47-3.41-6.22,4.52-6.22,4.52,8.93-1.8,5.76-.53-6.19,2.14-6.19,2.14h-2.47s-8.42-4.23-5.25-3.59A15.61,15.61,0,0,1,363,417.24Z" transform="translate(-27.51 -39.84)"/><path class="cls-1" d="M473,417.6s-6.77-7-4.87-6.81,5.46,5.47,5.46,5.47.05-11.58,1.74-9-.39,9.08-.39,9.08,4.84-7.54,4.83-6.31c0,3.82-3.73,6.8-3.73,6.8s7.74-5.74,6.48-3.41-6.22,4.52-6.22,4.52,8.92-1.8,5.75-.53-6.19,2.14-6.19,2.14H473.4s-8.43-4.23-5.26-3.6A15.93,15.93,0,0,1,473,417.6Z" transform="translate(-27.51 -39.84)"/><path class="cls-1" d="M677.47,395.63s-10.32-10.69-7.42-10.37,8.31,8.32,8.31,8.32.08-17.63,2.65-13.76-.59,13.84-.59,13.84,7.37-11.49,7.35-9.61c0,5.8-5.67,10.34-5.67,10.34s11.78-8.73,9.85-5.19-9.46,6.88-9.46,6.88,13.58-2.74,8.75-.81-9.42,3.26-9.42,3.26h-3.75s-12.83-6.44-8-5.47A24.26,24.26,0,0,1,677.47,395.63Z" transform="translate(-27.51 -39.84)"/><path class="cls-1" d="M62.54,395.63s-10.32-10.69-7.43-10.37,8.32,8.32,8.32,8.32.08-17.63,2.65-13.76-.59,13.84-.59,13.84,7.36-11.49,7.35-9.61c0,5.8-5.67,10.34-5.67,10.34S79,385.66,77,389.2s-9.47,6.88-9.47,6.88,13.59-2.74,8.76-.81-9.42,3.26-9.42,3.26H63.14s-12.83-6.44-8-5.47A24.26,24.26,0,0,1,62.54,395.63Z" transform="translate(-27.51 -39.84)"/><path class="cls-1" d="M113.45,380.54s-10.56-18.22-7.55-19.62,9.24,12.45,9.24,12.45-1.21-26.11,1.6-23.7,5.42,20.89,5.42,20.89,5.63-20.09,7.44-15.87-1.45,17-1.45,17,8.07-15.37,8.88-10.35-3.82,13.25-3.82,13.25,10.64-10.64,11.45-6.42-2.81,8.43-2.81,8.43,14.05-7.63,10.64-3.41-8.43,9.64-8.43,9.64,13.45-4.82,11.84-2-7.63,5.82-7.63,5.82,11-2,9.84-.2a16.23,16.23,0,0,1-4,3.59h-50s-13.25-4.79-8-5.19a23,23,0,0,1,10,1.8s-16.27-11-8.64-11.84,13.86,8.83,13.86,8.83-10.84-15.26-7-12.85Z" transform="translate(-27.51 -39.84)"/><path class="cls-9" d="M114.13,385.72s-13.64-14.13-9.81-13.7,11,11,11,11,.1-23.29,3.5-18.19S118,383.1,118,383.1s9.73-15.17,9.71-12.69c-.07,7.67-7.5,13.66-7.5,13.66s15.58-11.53,13-6.86-12.51,9.1-12.51,9.1,18-3.62,11.58-1.07-12.45,4.31-12.45,4.31h-5s-17-8.51-10.57-7.23A31.62,31.62,0,0,1,114.13,385.72Z" transform="translate(-27.51 -39.84)"/><path class="cls-1" d="M563.2,412.58s-20-34.42-14.27-37.08S566.4,399,566.4,399s-2.28-49.34,3-44.79,10.25,39.48,10.25,39.48,10.63-38,14.05-30S591,395.82,591,395.82s15.26-29.05,16.78-19.56-7.21,25.05-7.21,25.05,20.12-20.12,21.64-12.15-5.32,15.95-5.32,15.95,26.57-14.43,20.12-6.46-15.94,18.23-15.94,18.23,25.43-9.12,22.39-3.8-14.42,11-14.42,11,20.88-3.8,18.6-.38-7.58,6.77-7.58,6.77H545.52s-25.06-9.05-15.19-9.81,19,3.42,19,3.42-30.74-20.88-16.32-22.4,26.19,16.7,26.19,16.7-20.5-28.85-13.28-24.29Z" transform="translate(-27.51 -39.84)"/><path class="cls-9" d="M564.49,422.38S538.71,395.67,546,396.47s20.77,20.78,20.77,20.78.19-44,6.62-34.38-1.47,34.56-1.47,34.56,18.38-28.68,18.34-24c-.13,14.49-14.16,25.82-14.16,25.82s29.43-21.8,24.61-13S577,423.5,577,423.5s33.93-6.85,21.87-2-23.53,8.14-23.53,8.14H566s-32-16.08-20-13.67S564.49,422.38,564.49,422.38Z" transform="translate(-27.51 -39.84)"/></g><g id="Rocks"><path class="cls-10" d="M147.85,381.57s2-1.85,3.79-1.85,7.1,2.57,7.1,2.57,2.14,3.3,2.33,3.5,2.82,1.32,3,1.78.58,2,.58,2H148.33l-3-7.92Z" transform="translate(-27.51 -39.84)"/><path class="cls-4" d="M151.64,379.72l-.1,1.56s4.18,2.43,4.09,3.31a16.47,16.47,0,0,1-1,2.91l2.14,2.24H145.42l.87-6.71S148.72,379.53,151.64,379.72Z" transform="translate(-27.51 -39.84)"/><path class="cls-10" d="M126.55,380.6s8.17-12.26,10-12.45a9.05,9.05,0,0,1,7.19,3.89,44.89,44.89,0,0,1,2.92,7.78c.1.29.49.49,2.72,4.08s2.14,5.65,2.14,5.65H119.93a19.12,19.12,0,0,1,1.85-5.06,7.26,7.26,0,0,1,3.89-2.53Z" transform="translate(-27.51 -39.84)"/><path class="cls-4" d="M139.09,389.35s-.87-2.14-1-2.43-.1-3.11-.39-4.28a30,30,0,0,0-2.72-4.77l1.75-5.05-.88-.68,1.46-3.6-.81-.38c-1.92.34-10,12.44-10,12.44l-.88,1.36a7.26,7.26,0,0,0-3.89,2.53,18.06,18.06,0,0,0-1.8,4.86Z" transform="translate(-27.51 -39.84)"/><path class="cls-10" d="M462.84,384.62a4.57,4.57,0,0,1,2.38-1.16c1.1,0,4.45,1.61,4.45,1.61s1.34,2.07,1.46,2.19,1.77.83,1.89,1.12.37,1.24.37,1.24H463.14l-1.89-5Z" transform="translate(-27.51 -39.84)"/><path class="cls-4" d="M465.22,383.46l-.06,1s2.62,1.53,2.56,2.08a10.16,10.16,0,0,1-.61,1.83l1.34,1.4h-7.14l.55-4.21S463.39,383.34,465.22,383.46Z" transform="translate(-27.51 -39.84)"/><path class="cls-10" d="M449.48,384s5.13-7.69,6.29-7.81a5.72,5.72,0,0,1,4.51,2.44,28.53,28.53,0,0,1,1.83,4.88c.06.18.3.31,1.71,2.56a7,7,0,0,1,1.34,3.54H445.34a11.74,11.74,0,0,1,1.16-3.17,4.56,4.56,0,0,1,2.44-1.59Z" transform="translate(-27.51 -39.84)"/><path class="cls-4" d="M457.35,389.5s-.55-1.35-.61-1.53-.06-2-.24-2.68a19.56,19.56,0,0,0-1.71-3l1.1-3.17-.55-.43.91-2.25-.51-.24c-1.2.21-6.26,7.8-6.26,7.8l-.54.85a4.56,4.56,0,0,0-2.44,1.59,11.17,11.17,0,0,0-1.13,3.05Z" transform="translate(-27.51 -39.84)"/><path class="cls-10" d="M628.22,414.53s3.86-3.49,7.17-3.49,13.42,4.86,13.42,4.86,4.05,6.23,4.41,6.61,5.33,2.49,5.7,3.36,1.1,3.74,1.1,3.74H629.14l-5.7-14.95Z" transform="translate(-27.51 -39.84)"/><path class="cls-4" d="M635.39,411l-.18,2.94s7.9,4.6,7.72,6.25a31.36,31.36,0,0,1-1.84,5.52l4,4.23h-21.5l1.65-12.69S629.88,410.68,635.39,411Z" transform="translate(-27.51 -39.84)"/><path class="cls-10" d="M588,412.7s15.45-23.16,18.94-23.53,10.84,2.57,13.6,7.35,5.33,14.16,5.52,14.71.92.92,5.14,7.72,4.05,10.66,4.05,10.66H575.46s1.29-6.07,3.5-9.56,7.35-4.78,7.35-4.78Z" transform="translate(-27.51 -39.84)"/><path class="cls-4" d="M611.68,429.24s-1.66-4-1.84-4.59-.18-5.89-.74-8.09-5.14-9-5.14-9l3.31-9.56-1.66-1.29,2.76-6.8-1.54-.71c-3.62.65-18.87,23.51-18.87,23.51l-1.65,2.57s-5.15,1.29-7.35,4.78c-1.89,3-3.1,7.84-3.41,9.19Z" transform="translate(-27.51 -39.84)"/></g></svg>