<svg xmlns="http://www.w3.org/2000/svg" xmlns:xlink="http://www.w3.org/1999/xlink" viewBox="0 0 460.53 429.34"><defs><style>.cls-1,.cls-13,.cls-2{fill:#92e3a9;}.cls-1,.cls-14,.cls-17,.cls-4,.cls-5,.cls-8{stroke:#263238;}.cls-1,.cls-14,.cls-17,.cls-4,.cls-5,.cls-8,.cls-9{stroke-linecap:round;stroke-linejoin:round;}.cls-16,.cls-3,.cls-4,.cls-6{fill:#fff;}.cls-3{opacity:0.7;}.cls-5{fill:#bfbfbf;}.cls-12,.cls-7,.cls-8{opacity:0.3;}.cls-10,.cls-14,.cls-17,.cls-8,.cls-9{fill:none;}.cls-9{stroke:#92e3a9;stroke-width:3px;}.cls-11{opacity:0.2;}.cls-12{fill-opacity:0.7;}.cls-13,.cls-16{opacity:0.4;}.cls-15{clip-path:url(#clip-path);}.cls-17{stroke-width:2px;}</style><clipPath id="clip-path"><path class="cls-1" d="M334.15,173.56l-15.31,2.78-21.28,3.87-27.87,5.07a4.13,4.13,0,0,1-4.81-3.33l-6.12-33.65a4.15,4.15,0,0,1,3.33-4.81l16.21-3,23.58-4.28,24.67-4.49a4.13,4.13,0,0,1,4.81,3.33l6.12,33.65A4.13,4.13,0,0,1,334.15,173.56Z"/></clipPath></defs><g id="Layer_2" data-name="Layer 2"><g id="Background_Simple" data-name="Background Simple"><path class="cls-2" d="M217.13,1.16c124-11,124.24,58.93,180.13,124.13S465.11,220,444,295.2,352,429.26,264.15,395.88s-138.14-1.32-193.54-31S-5.36,278,35.19,210.51,64.19,14.78,217.13,1.16Z"/><path class="cls-3" d="M217.13,1.16c124-11,124.24,58.93,180.13,124.13S465.11,220,444,295.2,352,429.26,264.15,395.88s-138.14-1.32-193.54-31S-5.36,278,35.19,210.51,64.19,14.78,217.13,1.16Z"/></g><g id="Document"><rect class="cls-4" x="119.26" y="41.11" width="196.11" height="272.62" transform="translate(-18.28 25.11) rotate(-6.35)"/><rect class="cls-5" x="106.27" y="41.83" width="196.11" height="37.72" transform="translate(-5.46 22.96) rotate(-6.35)"/><path class="cls-6" d="M245.55,48.36l-84.14,9.36a2.88,2.88,0,0,0,.64,5.72l84.13-9.36a2.88,2.88,0,0,0-.63-5.72Z"/><path class="cls-6" d="M225.82,62.45l-42.07,4.68a1.44,1.44,0,0,0,.32,2.86l42.07-4.68a1.43,1.43,0,0,0,1.27-1.59A1.45,1.45,0,0,0,225.82,62.45Z"/><path class="cls-7" d="M257.26,94.86,147,107.12a1.07,1.07,0,0,0-.95,1.18,1.08,1.08,0,0,0,1.18,1L257.49,97a1.07,1.07,0,1,0-.23-2.13Z"/><path class="cls-7" d="M258.11,102.51l-126.77,14.1a1.07,1.07,0,0,0,.24,2.13l126.77-14.1a1.07,1.07,0,0,0-.24-2.13Z"/><path class="cls-7" d="M225.87,113.84,132.2,124.26a1.07,1.07,0,0,0,.23,2.13L226.11,116a1.05,1.05,0,0,0,.94-1.18A1.07,1.07,0,0,0,225.87,113.84Z"/><rect class="cls-8" x="272.18" y="91.38" width="16.73" height="16.73" rx="2.74" transform="translate(-9.31 31.63) rotate(-6.35)"/><polyline class="cls-9" points="276.02 99.39 279.69 102.86 284.54 95.45"/><path class="cls-7" d="M261.29,131.1,151.07,143.36a1.07,1.07,0,1,0,.24,2.12l110.22-12.26a1.07,1.07,0,1,0-.24-2.12Z"/><path class="cls-7" d="M262.14,138.75l-126.76,14.1a1.06,1.06,0,0,0-.95,1.18,1.08,1.08,0,0,0,1.18.95l126.77-14.1a1.08,1.08,0,0,0,.94-1.19A1.06,1.06,0,0,0,262.14,138.75Z"/><path class="cls-7" d="M229.9,150.08,136.23,160.5a1.07,1.07,0,0,0,.23,2.13l93.68-10.42a1.07,1.07,0,0,0-.24-2.13Z"/><rect class="cls-8" x="276.21" y="127.61" width="16.73" height="16.73" rx="2.74" transform="translate(-13.29 32.29) rotate(-6.35)"/><polyline class="cls-9" points="280.05 135.63 283.72 139.09 288.57 131.68"/><path class="cls-7" d="M265.32,167.33,155.1,179.59a1.07,1.07,0,1,0,.24,2.13l110.22-12.26a1.07,1.07,0,0,0-.24-2.13Z"/><path class="cls-7" d="M266.17,175l-126.76,14.1a1.07,1.07,0,1,0,.23,2.12l126.77-14.1a1.07,1.07,0,1,0-.24-2.12Z"/><path class="cls-7" d="M233.93,186.32l-93.67,10.42a1.07,1.07,0,0,0-.95,1.18,1.08,1.08,0,0,0,1.18,1l93.68-10.42a1.07,1.07,0,1,0-.24-2.13Z"/><rect class="cls-8" x="280.24" y="163.85" width="16.73" height="16.73" rx="2.74" transform="translate(-17.27 32.96) rotate(-6.35)"/><polyline class="cls-9" points="284.08 171.86 287.75 175.33 292.6 167.92"/><path class="cls-7" d="M269.35,203.57,159.13,215.83a1.07,1.07,0,1,0,.24,2.13L269.59,205.7a1.07,1.07,0,0,0-.24-2.13Z"/><path class="cls-7" d="M270.2,211.22l-126.76,14.1a1.08,1.08,0,0,0-.95,1.19,1.07,1.07,0,0,0,1.18.94l126.77-14.1a1.05,1.05,0,0,0,.94-1.18A1.07,1.07,0,0,0,270.2,211.22Z"/><path class="cls-7" d="M238,222.56,144.29,233a1.07,1.07,0,1,0,.23,2.12l93.68-10.41a1.07,1.07,0,1,0-.24-2.13Z"/><rect class="cls-8" x="284.27" y="200.09" width="16.73" height="16.73" rx="2.74" transform="translate(-21.25 33.63) rotate(-6.35)"/><polyline class="cls-9" points="288.11 208.1 291.78 211.57 296.63 204.16"/><path class="cls-7" d="M273.38,239.81,163.16,252.07a1.07,1.07,0,0,0,.24,2.13l110.22-12.26a1.07,1.07,0,0,0-.24-2.13Z"/><path class="cls-7" d="M274.23,247.46l-126.76,14.1a1.08,1.08,0,0,0-.95,1.19,1.07,1.07,0,0,0,1.18.94l126.77-14.1a1.05,1.05,0,0,0,.94-1.18A1.07,1.07,0,0,0,274.23,247.46Z"/><path class="cls-7" d="M242,258.8l-93.67,10.41a1.07,1.07,0,1,0,.24,2.13l93.67-10.42a1.07,1.07,0,1,0-.24-2.12Z"/><rect class="cls-8" x="288.3" y="236.33" width="16.73" height="16.73" rx="2.74" transform="translate(-25.23 34.3) rotate(-6.35)"/><polyline class="cls-9" points="292.14 244.34 295.81 247.81 300.66 240.4"/><path class="cls-7" d="M276.46,267.46,166.24,279.72a1.07,1.07,0,1,0,.23,2.13l110.22-12.26a1.07,1.07,0,0,0,.95-1.18A1.08,1.08,0,0,0,276.46,267.46Z"/><path class="cls-7" d="M277.31,275.11l-126.77,14.1a1.08,1.08,0,0,0-.94,1.19,1.06,1.06,0,0,0,1.18.94l126.76-14.1a1.06,1.06,0,0,0,.95-1.18A1.08,1.08,0,0,0,277.31,275.11Z"/><path class="cls-7" d="M245.07,286.45l-93.68,10.42a1.07,1.07,0,0,0,.24,2.12l93.68-10.42a1.07,1.07,0,0,0-.24-2.12Z"/><rect class="cls-8" x="291.37" y="263.98" width="16.73" height="16.73" rx="2.74" transform="translate(-28.27 34.8) rotate(-6.35)"/><polyline class="cls-9" points="295.22 271.99 298.89 275.46 303.74 268.05"/></g><g id="Stamp"><path class="cls-10" d="M207.73,168.67c-.67-1.17-1.32-1.29-2.14-.83l-1.22.69,3.15,5.55,1.21-.69c.82-.47,1.06-1.09.39-2.26Z"/><path class="cls-2" d="M184.82,196.71a5.25,5.25,0,0,0-.79-3.27l-1.24-2.18-2.43,1.38,1.32,2.34c.67,1.17.39,1.89-.43,2.35s-1.57.34-2.23-.83l-2.87-5.06-3.07.6,3.27,5.75c1.49,2.62,3.65,3.38,6.17,1.94a5.42,5.42,0,0,0,1.11-.82,1.6,1.6,0,0,1,.53-1.9A2.07,2.07,0,0,1,184.82,196.71Z"/><path class="cls-2" d="M171.52,189.27l.57,1,3.38,0L174,187.65c-.67-1.17-.4-1.91.42-2.38s1.58-.31,2.25.86l1,1.76,2.44-1.38-.91-1.59c-1.48-2.63-3.64-3.38-6.17-1.95a5.58,5.58,0,0,0-1.53,1.25,5.3,5.3,0,0,0,1.78.25l-2.4.9A4.77,4.77,0,0,0,171.52,189.27Z"/><path class="cls-2" d="M190.2,178.61a6.85,6.85,0,0,1,1-.4c1.29-.57,1.59-2.43,1.48-3.74l-1.33-1.65-3.58,2,2.24,3.94A.77.77,0,0,1,190.2,178.61Z"/><path class="cls-2" d="M205.45,186.48l2.44-1.38-9.3-16.39-2.3,1.31c.74.18,1.27.52,1.29,1.07-.72.1-1.61,0-2.38.14l4.68,12.13,0,0L193.92,176a1,1,0,0,1-.36.87c-.27.19-.66.19-.88.43s-.17.55-.35.78-.46.28-.69.44a4.73,4.73,0,0,0-.7.84,1.09,1.09,0,0,1-.45.27l6.58,11.59,2.25-1.27-6.57-11.59,0,0,8.45,10.52,2.43-1.38-4.93-12.73,0,0Z"/><path class="cls-2" d="M211.61,172.18a1.5,1.5,0,0,1,.74.88,4.86,4.86,0,0,0-.75-3.56l-1.21-2.13c-1.48-2.62-3.56-3.33-6.13-1.87l-3.79,2.15L209.76,184l2.42-1.37c-.78-.5-1.65-.91-2.4-1.45a2.31,2.31,0,0,1-.82-.88,1.06,1.06,0,0,1,.12-1.15,1.17,1.17,0,0,1,1.24-.17l-1.48-2.6,1.22-.69a5.16,5.16,0,0,0,1.71-1.48C211.27,173.44,210.37,171.72,211.61,172.18Zm-2.88,1.21-1.21.69-3.15-5.55,1.22-.69c.82-.46,1.47-.34,2.14.83l1.39,2.46C209.79,172.3,209.55,172.92,208.73,173.39Z"/><path class="cls-2" d="M225.4,175.17l-1.33-2.34-4.24,2.4-6.2-10.93-.27.22a1.53,1.53,0,0,1-.65.35.51.51,0,0,1-.59-.32,1.24,1.24,0,0,1,.06-.47,4.44,4.44,0,0,0-.84-2.59l-2.05,1.16,9.3,16.38Z"/><path class="cls-2" d="M224.24,169.48c.28-.73,1.14-1,1.63-1.67a1.37,1.37,0,0,0,.13-.2l-.95-1.68,2.53-1.43a1,1,0,0,0-.25-.43,3.86,3.86,0,0,0-1.15-.36.88.88,0,0,1,.68-1.25c.17,0,.36,0,.49-.08a.52.52,0,0,0,.13-.39l-.23-.41-3.53,2L221.13,159l4.45-2.52-1.33-2.34-7,4,6.88,12.13A2.62,2.62,0,0,1,224.24,169.48Z"/><path class="cls-2" d="M233.55,170.55l-1.33-2.34-4.45,2.52-1.33-2.35-1.64,1.55c-.19.18-.39.36-.57.55l2.29,4.05Z"/><path class="cls-2" d="M230.24,151.52c-.05.35-.25.73-.6.77a1.74,1.74,0,0,1-.5-.08,4.56,4.56,0,0,1-.92-.09A.78.78,0,0,1,228,152l-2.95,1.67,1.33,2.34,2.69-1.52,8,14,2.58-1.46-8-14,2.69-1.53-1.33-2.34-2.75,1.56C230.25,151,230.27,151.26,230.24,151.52Z"/><path class="cls-2" d="M241.47,161.38l2,3.54,2.7-1.54a4.59,4.59,0,0,1,.24-.5,6.3,6.3,0,0,1,2.34-2.06L250,160l-.82-1.45-4.45,2.53-2.72-4.8,3.53-2L244.2,152l-3.53,2-2.59-4.57,4.45-2.52-1.33-2.34-7,4,5,8.91C240.46,156.84,241.08,159.18,241.47,161.38Z"/><path class="cls-2" d="M189.68,193.79c.42.08.67.49,1,.78a2,2,0,0,0,.41.26,4.67,4.67,0,0,0,.56-.26c2.53-1.43,3.06-3.72,1.57-6.34l-.14-.26-3.46-.1,1.12,2c.66,1.17.4,1.9-.42,2.37s-1.58.31-2.25-.86l-5-8.85c-.66-1.17-.4-1.91.42-2.37s1.59-.31,2.25.86l3.4,6a13.13,13.13,0,0,1,3.18-.4l-3.91-6.89c-1.49-2.62-3.72-3.34-6.25-1.9s-3.06,3.71-1.57,6.34l4.83,8.52a4.61,4.61,0,0,0,3.29,2.57c0-.06,0-.12,0-.18C188.58,194.43,189.06,193.68,189.68,193.79Z"/><path class="cls-2" d="M224.21,146.77l7.85-4.45c-2.26.62-4.23,2.5-6.56,2.24a2.37,2.37,0,0,0-1.27,0,1.24,1.24,0,0,0-.43,1.63A2.24,2.24,0,0,0,224.21,146.77Z"/><path class="cls-2" d="M204.52,157.94a.84.84,0,0,1,.1-.51,1.56,1.56,0,0,0,.6.11l2.71-1.53a7.49,7.49,0,0,1,1.44-1.26,7.1,7.1,0,0,1,1.62-.64l.6-.18,5-2.82a.94.94,0,0,1,.21-.28.71.71,0,0,1,.25-.11l-5.17-1.57-1.38.79-.15,1.1-6,3.18a5.3,5.3,0,0,1-1.92.73,4.07,4.07,0,0,1-.78,0l-8.47,4.81a5.24,5.24,0,0,0,.34,1.17,3.69,3.69,0,0,1-1.39-.57l-1.74,1q1.84,1.23,3.65,2.55Z"/><path class="cls-2" d="M240.81,137.35l-4.09-2.3-1.94,1.11A8,8,0,0,0,239,138.4Z"/><path class="cls-2" d="M262.87,161.57l-15.48-27.29a4.6,4.6,0,0,0-6.26-1.73l-1.86,1.06.71.69c.75.73,1.5,1.48,2.2,2.28l.93-.53a.57.57,0,0,1,.78.21l15.48,27.29a.57.57,0,0,1-.21.78l-21.08,11.95c1.82.11,3.67-.15,5.48.06a18.71,18.71,0,0,1,2,.35l15.62-8.87A4.59,4.59,0,0,0,262.87,161.57Z"/><path class="cls-2" d="M168,196.3l-7.3-12.86a.57.57,0,0,1,.22-.78l21-11.92c-.07-.16-.16-.32-.23-.48a2.68,2.68,0,0,1,.89.1l8.48-4.81-.82-.3-4-1.59-3.2,1.81,3.47,2.13c-1.2-.73-3.68-.83-5.8-.8L159,179.16a4.6,4.6,0,0,0-1.72,6.26l6.31,11.13c.3-.07.59-.14.89-.19a13,13,0,0,1,2.42-.12A9.17,9.17,0,0,1,168,196.3Z"/><path class="cls-2" d="M193.94,201.32a4.63,4.63,0,0,0,1.2.77c.46.19,1.05.68.7,1-1.62.73-3.61.19-5.21,1-.86.43-1.7,1.26-2.63,1a12.47,12.47,0,0,1,3,2.53l39.71-22.52c0-.17.06-.33.08-.49a2.75,2.75,0,0,1,.57-1.48,2.8,2.8,0,0,1,2-.57,5.31,5.31,0,0,1,1.54.15l4.94-2.8a18.14,18.14,0,0,0-2.4-3.26Z"/><path class="cls-2" d="M187.52,207.93a7.14,7.14,0,0,1-2.6-1.5L177,210.94a.57.57,0,0,1-.78-.21l-7-12.28a5,5,0,0,0-2.1-.23c-.8.16-1.51,1.1-1.07,1.79a2.31,2.31,0,0,1,2,1.24,6.71,6.71,0,0,1-1.4.85l6,10.61a4.59,4.59,0,0,0,6.25,1.73l10.39-5.89-.13-.07A16.06,16.06,0,0,0,187.52,207.93Z"/><g class="cls-11"><path d="M184.82,196.71a5.25,5.25,0,0,0-.79-3.27l-1.24-2.18-2.43,1.38,1.32,2.34c.67,1.17.39,1.89-.43,2.35s-1.57.34-2.23-.83l-2.87-5.06-3.07.6,3.27,5.75c1.49,2.62,3.65,3.38,6.17,1.94a5.42,5.42,0,0,0,1.11-.82,1.6,1.6,0,0,1,.53-1.9A2.07,2.07,0,0,1,184.82,196.71Z"/><path d="M171.52,189.27l.57,1,3.38,0L174,187.65c-.67-1.17-.4-1.91.42-2.38s1.58-.31,2.25.86l1,1.76,2.44-1.38-.91-1.59c-1.48-2.63-3.64-3.38-6.17-1.95a5.58,5.58,0,0,0-1.53,1.25,5.3,5.3,0,0,0,1.78.25l-2.4.9A4.77,4.77,0,0,0,171.52,189.27Z"/><path d="M190.2,178.61a6.85,6.85,0,0,1,1-.4c1.29-.57,1.59-2.43,1.48-3.74l-1.33-1.65-3.58,2,2.24,3.94A.77.77,0,0,1,190.2,178.61Z"/><path d="M205.45,186.48l2.44-1.38-9.3-16.39-2.3,1.31c.74.18,1.27.52,1.29,1.07-.72.1-1.61,0-2.38.14l4.68,12.13,0,0L193.92,176a1,1,0,0,1-.36.87c-.27.19-.66.19-.88.43s-.17.55-.35.78-.46.28-.69.44a4.73,4.73,0,0,0-.7.84,1.09,1.09,0,0,1-.45.27l6.58,11.59,2.25-1.27-6.57-11.59,0,0,8.45,10.52,2.43-1.38-4.93-12.73,0,0Z"/><path d="M211.61,172.18a1.5,1.5,0,0,1,.74.88,4.86,4.86,0,0,0-.75-3.56l-1.21-2.13c-1.48-2.62-3.56-3.33-6.13-1.87l-3.79,2.15L209.76,184l2.42-1.37c-.78-.5-1.65-.91-2.4-1.45a2.31,2.31,0,0,1-.82-.88,1.06,1.06,0,0,1,.12-1.15,1.17,1.17,0,0,1,1.24-.17l-1.48-2.6,1.22-.69a5.16,5.16,0,0,0,1.71-1.48C211.27,173.44,210.37,171.72,211.61,172.18Zm-2.88,1.21-1.21.69-3.15-5.55,1.22-.69c.82-.46,1.47-.34,2.14.83l1.39,2.46C209.79,172.3,209.55,172.92,208.73,173.39Z"/><path d="M225.4,175.17l-1.33-2.34-4.24,2.4-6.2-10.93-.27.22a1.53,1.53,0,0,1-.65.35.51.51,0,0,1-.59-.32,1.24,1.24,0,0,1,.06-.47,4.44,4.44,0,0,0-.84-2.59l-2.05,1.16,9.3,16.38Z"/><path d="M224.24,169.48c.28-.73,1.14-1,1.63-1.67a1.37,1.37,0,0,0,.13-.2l-.95-1.68,2.53-1.43a1,1,0,0,0-.25-.43,3.86,3.86,0,0,0-1.15-.36.88.88,0,0,1,.68-1.25c.17,0,.36,0,.49-.08a.52.52,0,0,0,.13-.39l-.23-.41-3.53,2L221.13,159l4.45-2.52-1.33-2.34-7,4,6.88,12.13A2.62,2.62,0,0,1,224.24,169.48Z"/><path d="M233.55,170.55l-1.33-2.34-4.45,2.52-1.33-2.35-1.64,1.55c-.19.18-.39.36-.57.55l2.29,4.05Z"/><path d="M230.24,151.52c-.05.35-.25.73-.6.77a1.74,1.74,0,0,1-.5-.08,4.56,4.56,0,0,1-.92-.09A.78.78,0,0,1,228,152l-2.95,1.67,1.33,2.34,2.69-1.52,8,14,2.58-1.46-8-14,2.69-1.53-1.33-2.34-2.75,1.56C230.25,151,230.27,151.26,230.24,151.52Z"/><path d="M241.47,161.38l2,3.54,2.7-1.54a4.59,4.59,0,0,1,.24-.5,6.3,6.3,0,0,1,2.34-2.06L250,160l-.82-1.45-4.45,2.53-2.72-4.8,3.53-2L244.2,152l-3.53,2-2.59-4.57,4.45-2.52-1.33-2.34-7,4,5,8.91C240.46,156.84,241.08,159.18,241.47,161.38Z"/><path d="M189.68,193.79c.42.08.67.49,1,.78a2,2,0,0,0,.41.26,4.67,4.67,0,0,0,.56-.26c2.53-1.43,3.06-3.72,1.57-6.34l-.14-.26-3.46-.1,1.12,2c.66,1.17.4,1.9-.42,2.37s-1.58.31-2.25-.86l-5-8.85c-.66-1.17-.4-1.91.42-2.37s1.59-.31,2.25.86l3.4,6a13.13,13.13,0,0,1,3.18-.4l-3.91-6.89c-1.49-2.62-3.72-3.34-6.25-1.9s-3.06,3.71-1.57,6.34l4.83,8.52a4.61,4.61,0,0,0,3.29,2.57c0-.06,0-.12,0-.18C188.58,194.43,189.06,193.68,189.68,193.79Z"/><path d="M224.21,146.77l7.85-4.45c-2.26.62-4.23,2.5-6.56,2.24a2.37,2.37,0,0,0-1.27,0,1.24,1.24,0,0,0-.43,1.63A2.24,2.24,0,0,0,224.21,146.77Z"/><path d="M204.52,157.94a.84.84,0,0,1,.1-.51,1.56,1.56,0,0,0,.6.11l2.71-1.53a7.49,7.49,0,0,1,1.44-1.26,7.1,7.1,0,0,1,1.62-.64l.6-.18,5-2.82a.94.94,0,0,1,.21-.28.71.71,0,0,1,.25-.11l-5.17-1.57-1.38.79-.15,1.1-6,3.18a5.3,5.3,0,0,1-1.92.73,4.07,4.07,0,0,1-.78,0l-8.47,4.81a5.24,5.24,0,0,0,.34,1.17,3.69,3.69,0,0,1-1.39-.57l-1.74,1q1.84,1.23,3.65,2.55Z"/><path d="M240.81,137.35l-4.09-2.3-1.94,1.11A8,8,0,0,0,239,138.4Z"/><path d="M262.87,161.57l-15.48-27.29a4.6,4.6,0,0,0-6.26-1.73l-1.86,1.06.71.69c.75.73,1.5,1.48,2.2,2.28l.93-.53a.57.57,0,0,1,.78.21l15.48,27.29a.57.57,0,0,1-.21.78l-21.08,11.95c1.82.11,3.67-.15,5.48.06a18.71,18.71,0,0,1,2,.35l15.62-8.87A4.59,4.59,0,0,0,262.87,161.57Z"/><path d="M168,196.3l-7.3-12.86a.57.57,0,0,1,.22-.78l21-11.92c-.07-.16-.16-.32-.23-.48a2.68,2.68,0,0,1,.89.1l8.48-4.81-.82-.3-4-1.59-3.2,1.81,3.47,2.13c-1.2-.73-3.68-.83-5.8-.8L159,179.16a4.6,4.6,0,0,0-1.72,6.26l6.31,11.13c.3-.07.59-.14.89-.19a13,13,0,0,1,2.42-.12A9.17,9.17,0,0,1,168,196.3Z"/><path d="M193.94,201.32a4.63,4.63,0,0,0,1.2.77c.46.19,1.05.68.7,1-1.62.73-3.61.19-5.21,1-.86.43-1.7,1.26-2.63,1a12.47,12.47,0,0,1,3,2.53l39.71-22.52c0-.17.06-.33.08-.49a2.75,2.75,0,0,1,.57-1.48,2.8,2.8,0,0,1,2-.57,5.31,5.31,0,0,1,1.54.15l4.94-2.8a18.14,18.14,0,0,0-2.4-3.26Z"/><path d="M187.52,207.93a7.14,7.14,0,0,1-2.6-1.5L177,210.94a.57.57,0,0,1-.78-.21l-7-12.28a5,5,0,0,0-2.1-.23c-.8.16-1.51,1.1-1.07,1.79a2.31,2.31,0,0,1,2,1.24,6.71,6.71,0,0,1-1.4.85l6,10.61a4.59,4.59,0,0,0,6.25,1.73l10.39-5.89-.13-.07A16.06,16.06,0,0,0,187.52,207.93Z"/></g></g><g id="Left_hand" data-name="Left hand"><path class="cls-12" d="M142.48,172.22c6.11,4.48,11.2,26,11.67,45.73s9.95,53,11.13,58.44.73,13.32,7.8,2.38,27.8-29.93,36.43-23.63-5.91,27.53-13.78,38.95-8.67,31.53-18.09,44.12-18,31.6-27.2,31.31S80,414.63,80,414.63l1.2-62.15,55-90Z"/><path class="cls-6" d="M214.53,258.2c-.31,1.95-11.08,16.22-17.41,26.9s-12.26,29.27-13.85,32-21,19.78-26.32,26.91-14.82,10.28-24.31,17c-6.1,4.32-25.11,26.61-37.92,42-7.12,8.55-12.33,15-12.33,15L.5,396.66s6.78-5.59,15.7-13.13l.06,0,.09-.07C31,371,51.44,353.44,57.08,346.81c9.09-10.68,21.75-23.34,21.75-23.34-.77-14.83.8-28.88-.59-34.22-.72-2.79-2-18.66-3-23.54-2.43-12.47-13-25.39-14.19-30.48s-15.17-26.82-8.36-30.83a6.27,6.27,0,0,1,4.16-.91c9.2,1.27,16.78,23.49,22,29.15a67.66,67.66,0,0,1,6.06,8.52C89,247.69,93.08,255,93.08,255c1.58-6.33-9.89-28.88-13.06-50.24S67.76,172,80,170.64a7.65,7.65,0,0,1,3,.26c8.63,2.52,12.37,20.45,17.53,37.85.48,1.6,4.41,13.09,7.47,21.95,0,0,0,0,0,0,2,5.8,3.6,10.47,3.6,10.47.39-10.88-3-21-3.56-30.86-.24-4,1-19.78-.56-35.6-1.34-13.35-.73-18.76,4.49-19.81a13,13,0,0,1,3.39-.16c9,.57,12.26,24.62,12.26,34,0,5.45.93,16.09,1.71,24.07.57,5.77,1.06,10.15,1.06,10.15s1.58-13.25.4-41.83c-.27-6.26.14-10.74,2.6-12.55,1.35-1,3.3-1.17,6.1-.41,7.91,2.14,10.48,31.45,10.48,42.53s6.33,30.06,7.52,45,6.37,33.3,6.37,33.3,2.93,1.19,4.9.8,15.63-20.57,15.63-20.57c6.36-13.81,18.74-18,25.48-16.45C213.05,253.53,215,255.45,214.53,258.2Z"/><path class="cls-13" d="M214.53,258.2c-.31,1.95-11.08,16.22-17.41,26.9s-12.26,29.27-13.85,32-21,19.78-26.32,26.91-14.82,10.28-24.31,17c-6.1,4.32-25.11,26.61-37.92,42,1.41-5.58,4.57-12.71,12.83-19.56,14.34-11.91,15.2-21.25,22.91-29.16s21.29-5.54,26.17-15,21.9-18.2,25.46-26.51-3.56-10.07,2.77-20.07,12.47-12.43,11.57-16.35-3.56-9.86,1.93-14.81c3.43-3.08,7.46-6.95,11.58-8.73C213.05,253.53,215,255.45,214.53,258.2Z"/><path class="cls-13" d="M111.93,305.14c-2.63-1.32-.52-3.95-2.37-6.14s-6.07,11.95-7,12-3.76-7.19-4.88-7.91-1.78,2.31-3.37,7.91-7.38,8.38-10.77,12.46S59.71,349.19,54.7,357.36,18.75,381.7,16.35,383.42C31,371,51.44,353.44,57.08,346.81c9.09-10.68,21.75-23.34,21.75-23.34-.77-14.83.8-28.88-.59-34.22-.72-2.79-2-18.66-3-23.54-2.43-12.47-13-25.39-14.19-30.48s-15.17-26.82-8.36-30.83a6.27,6.27,0,0,1,4.16-.91c-1.55,1.1-3.06,2.68-1.65,5,2.51,4.06,5.27,8.33,5.27,12.82s7.65,10.81,10.62,15,.2,2.71,2.18,8.45,4.35,4.54,5.53,10.34,7.78,9.5,6.73,16.73,3.16,17.29,3.16,17.29,3.43-9.75,2.18-15,.2-11.87-1-13.65c-1-1.6-3.74-12.46-5-19.21C89,247.69,93.08,255,93.08,255c1.58-6.33-9.89-28.88-13.06-50.24S67.76,172,80,170.64a7.65,7.65,0,0,1,3,.26c5.23,9.77,1.59,17,.43,21.24-1.27,4.62,6.29,16.48,7.41,24.65,1,7.63,3.06,6.84,3.33,6.7-.23.21-2.18,2.2-1,7.86,1.23,6,10,20.25,10,24.23s-.72,10.53-.72,12.47,7,14.92,7.84,18.32-.33-6.55,1.58-10,2.92-15.49,3.17-14.84C118.33,270,114.57,306.46,111.93,305.14Z"/><path class="cls-13" d="M117.6,215.78c-2.24,3.39-2.18,29.85-6,29.94-1.85,0-2.75-6.65-3.5-15,2,5.8,3.6,10.47,3.6,10.47.39-10.88-3-21-3.56-30.86-.24-4,1-19.78-.56-35.6-1.34-13.35-.73-18.76,4.49-19.81,1.1,3.56,3.8,7.76,4.49,11.66.94,5.38-.9,9.83-2.48,10.5s-1.85,4.14.13,4.65-.05,25.76.92,29S119.85,212.39,117.6,215.78Z"/><path class="cls-13" d="M138.15,186.16c-4.11,1.81-4.33,5.05-5.56,9.7s1.76,11.44,0,22.11,4.66,17.55,0,29.49-2.47-10-3.25-20a123.49,123.49,0,0,1,.06-14.62c.57,5.77,1.06,10.15,1.06,10.15s1.58-13.25.4-41.83c-.27-6.26.14-10.74,2.6-12.55C137.68,172.4,141.65,184.62,138.15,186.16Z"/><path class="cls-14" d="M82.39,418s40.75-50.24,50.24-57,19-9.88,24.31-17,24.75-24.13,26.33-26.9,7.52-21.36,13.85-32,17.09-25,17.4-26.9c1.39-8.71-20.77-9.1-30.06,11.07,0,0-13.65,20.18-15.63,20.57s-4.9-.79-4.9-.79-5.19-18.35-6.38-33.3-7.51-33.95-7.51-45-2.57-40.38-10.49-42.52-9.1,3.27-8.7,13c1.19,28.58-.39,41.84-.39,41.84s-2.77-24.83-2.77-34.22-3.21-33.44-12.27-34c-8.3-.53-9.46,4.14-7.88,20s.33,31.66.56,35.61c.6,9.89,4,20,3.56,30.86,0,0-10.28-29.79-11.07-32.44-5.73-19.31-9.71-39.28-20.57-38.11-12.27,1.31-3.17,12.79,0,34.15s14.63,43.91,13,50.24c0,0-9.49-17.23-14.22-22.39-5.95-6.49-15-34.77-26.13-28.25-6.82,4,7.17,25.74,8.36,30.83s11.75,18,14.19,30.49c1,4.88,2.24,20.75,3,23.54,1.38,5.34-.19,19.39.59,34.22,0,0-12.66,12.66-21.76,23.34S.5,396.66.5,396.66"/><path class="cls-14" d="M163.93,289.05a18.76,18.76,0,0,1,0,14.05"/><path class="cls-14" d="M167.26,289.89a6.64,6.64,0,0,1,2.36,7.47"/><path class="cls-14" d="M130.46,223s3.16,22.35,1.78,26.5"/><path class="cls-14" d="M111.66,241.19a20.64,20.64,0,0,1,0,6.52"/><path class="cls-14" d="M93.07,255s.59,3.36,0,4.16"/><path class="cls-14" d="M193.36,274s3.57,1.94,4.74,4.75"/><path class="cls-14" d="M111.8,181.15a7.09,7.09,0,0,0,6.59-1.78"/><path class="cls-14" d="M113.05,213.29s7.12,2.38,9.69,0"/><path class="cls-14" d="M136.19,220.22s4.75-1.78,7.91-.79"/><path class="cls-14" d="M90.9,226.55s3.75-5,6.72-3.56"/><path class="cls-14" d="M75.47,241.19s-3.37,1.58-4.35,3.26"/><path class="cls-14" d="M78.83,323.47a19.1,19.1,0,0,0,2.18-3c.59-1.18-.2-13.84,0-21.95"/><path class="cls-14" d="M120.33,373.28c-4.67,5.22-19,14.67-24.69,20.41"/><path class="cls-14" d="M139.16,255c-2.37,6.73.2,15.23,0,19s-1,21-1,21"/><path class="cls-14" d="M117.6,255c-3.17,5.34-2.18,12.46-1.19,16s.11,18,.11,18"/><path class="cls-14" d="M83.58,272a19.2,19.2,0,0,0,2,10.09"/><path class="cls-14" d="M103.16,261.56c-1.78,6.53.59,9.49.79,10.48"/></g><g id="Right_hand" data-name="Right hand"><path class="cls-12" d="M263.82,218.42l-3.36-19.56a6.54,6.54,0,0,1,5.61-7.6l7.54-1s-2.51-5.11,5.6-20,47.09-54.45,76.65,12,56.57,201.83,56.57,201.83-79.78-92.89-82.32-97.65-26.83-1.92-32.44-14.68-17.39-49.21-17.39-49.21l-9.13,1.24A6.54,6.54,0,0,1,263.82,218.42Z"/><path class="cls-2" d="M334.15,173.56l-15.31,2.78-21.28,3.87-27.87,5.07a4.13,4.13,0,0,1-4.81-3.33l-6.12-33.65a4.15,4.15,0,0,1,3.33-4.81l16.21-3,23.58-4.28,24.67-4.49a4.13,4.13,0,0,1,4.81,3.33l6.12,33.65A4.13,4.13,0,0,1,334.15,173.56Z"/><g class="cls-15"><path class="cls-12" d="M323.32,151.22l-4.48,25.12-21.28,3.87c-6.16-2.71-16.32-7.43-18.35-10-2.42-3-2.08-20.68-.91-29.72l23.58-4.28C310.19,141.94,323.32,151.22,323.32,151.22Z"/><path class="cls-12" d="M273.92,184.51l-4.23.77a4.13,4.13,0,0,1-4.81-3.33l-6.12-33.65a4.15,4.15,0,0,1,3.33-4.81l4.22-.77a4.14,4.14,0,0,0-3.32,4.81l6.12,33.65A4.13,4.13,0,0,0,273.92,184.51Z"/></g><path class="cls-14" d="M334.15,173.56l-15.31,2.78-21.28,3.87-27.87,5.07a4.13,4.13,0,0,1-4.81-3.33l-6.12-33.65a4.15,4.15,0,0,1,3.33-4.81l16.21-3,23.58-4.28,24.67-4.49a4.13,4.13,0,0,1,4.81,3.33l6.12,33.65A4.13,4.13,0,0,1,334.15,173.56Z"/><rect class="cls-14" x="265.45" y="136.52" width="73.79" height="42.47" rx="4.14" transform="matrix(0.98, -0.18, 0.18, 0.98, -23.34, 56.62)"/><rect class="cls-14" x="268.19" y="139.16" width="65.49" height="37.7" rx="2" transform="translate(-23.41 56.38) rotate(-10.3)"/><path class="cls-14" d="M338.38,172.79l-4.2.76a4.13,4.13,0,0,0,3.3-4.8l-6.12-33.65a4.13,4.13,0,0,0-4.81-3.33l4.23-.77a4.15,4.15,0,0,1,4.81,3.33L341.71,168A4.15,4.15,0,0,1,338.38,172.79Z"/><path class="cls-6" d="M460,280.58,418.6,391.66s-17.32-33-33.32-63.54C372.5,303.7,360.56,280.8,359,277.43c-3.61-7.59-15.9-23.49-15.9-23.49s-12.65-7.24-18.44-19.85-12.16-57.72-12.16-57.72-16.63-6.26-20.6-9-7.59-28.06-7.59-30.95,4-8.68,4-8.68-.89-4.24,4.19-8.52a23.34,23.34,0,0,1,5.47-3.35l.1,0s-.66-9.57,4.32-12.36a5.6,5.6,0,0,1,.74-.35c4.44-1.71,19-3.92,19-3.92a20.76,20.76,0,0,1,7.05-4.07c2.58-.71,16.74,2.58,24.65,4.53,3.18.78,5.35,1.34,5.35,1.34s13.38.61,15.91,2.12a25.21,25.21,0,0,1,4.8,4.09h0l.25.29S392,110,394.51,114.33s3.61,26.05,1.81,40.14,1.43,38,1.43,38,3.73,18.47,6.62,25.48S460,280.58,460,280.58Z"/><path class="cls-13" d="M385.28,328.12C372.5,303.7,360.56,280.8,359,277.43c-3.61-7.59-15.9-23.49-15.9-23.49s-12.65-7.24-18.44-19.85-12.16-57.72-12.16-57.72-16.63-6.26-20.6-9-7.59-28.06-7.59-30.95,4-8.68,4-8.68-.89-4.24,4.19-8.52c0,1.14,0,3.06,0,6.08-.12,5.73,6.63,40.28,8.3,39.23s4.25-3.58,3.57-5.81c0,0-3.27-13.41-6.36-42.85l.1,0s-.66-9.57,4.32-12.36a23,23,0,0,0-1.63,6.49c-.11,4.66,5.43,44.59,7.6,45.6s7.67-4.31,7.67-4.31-1.88-11.33-1.21-16.16c0,0,16.73,10.2,17.23,21.78,0,1.27,3.26,19.42,3.26,19.42s-14.39,27.4.3,52.4c0,0-7.47-4.48-9.25-11.6,0,0-2.17,20.94,13.26,32,0,0,11.07-10.87,21.95-12.25,0,0,.2.72-7.12,6.49s-8.31,8.34-8.31,8.34,7.92-8,14.25-8.34c0,0-6.53,7.55-6.33,9.13s18.67,33.16,25.39,55.19C382.19,316.89,384.06,323.53,385.28,328.12Z"/><path class="cls-13" d="M333.41,118.54s5.33,3.95,6.91,0a22.8,22.8,0,0,0,1.72-6.72s2-.94,4,4,21.5,6.19,26.08,8.72,6.41,0,6.41,0A6,6,0,0,1,380,132c-2.21,4.6,4.08,5,6.51,1.63s.55,9.67-5.48,11c0,0,.18,5.7-3.7,9.61h3.29s-8.76,6.94-11.1,7.33,8.68,4.27,6.63,5.09-7.82.75-7.82.75,3.74,2.59,3.77,4.3-1.77,3-2.58,1.57-7.27-21.91-10.48-29.48S342.52,130.2,333.41,118.54Z"/><path class="cls-13" d="M379.79,107.18c-11.22-3.07-26.27-7.44-26.27-7.44l.21-.11c3.18.78,5.35,1.34,5.35,1.34s13.38.61,15.91,2.12A25.21,25.21,0,0,1,379.79,107.18Z"/><path class="cls-2" d="M364,124.83c-9.76-2-16.74,6.34-16.74,6.34s9.71,8.77,11.86,12.55,5.71,16.47,5.71,16.47c4.09.66,11.64-3.55,13.45-14.75S373.72,126.82,364,124.83Z"/><path class="cls-14" d="M418.59,391.66S362.56,285,359,277.43,343,253.93,343,253.93s-12.65-7.23-18.43-19.84-12.16-57.73-12.16-57.73-16.63-6.25-20.61-9-7.59-28.06-7.59-30.95,4-8.68,4-8.68-1.45-6.85,9.76-11.92c0,0-.73-10.49,5.06-12.72,4.44-1.71,19-3.91,19-3.91a20.77,20.77,0,0,1,7.05-4.08c3.61-1,30,5.88,30,5.88s13.37.61,15.9,2.11a25.88,25.88,0,0,1,5.06,4.4S392,110,394.5,114.32s3.62,26.05,1.81,40.15,1.43,38,1.43,38,3.73,18.46,6.62,25.48S460,280.58,460,280.58"/><path class="cls-14" d="M371.19,174.9s-2.53-.55-5.79-12.48-4.11-17.5-10.84-24.58c-4.78-5-15.72-13.16-21.15-19.3s-11.38-11.06-16.08-7.31c-3.75,3-6.18,10.8-2.89,22.82,4.22,15.44,17.52,22.79,17.52,22.79l3.26,19.42S321.07,204.6,337,231.35"/><path class="cls-14" d="M347.22,131.17s7-8.33,16.74-6.34,16.08,9.4,14.28,20.61-9.36,15.41-13.45,14.75"/><path class="cls-14" d="M322,99.17a65.73,65.73,0,0,0-3.37,11.35"/><path class="cls-14" d="M316.09,138.33s.84,12.35,2.57,16.14,4.63,6.87,5.9,11.75,1.44,12.47,1.8,13.56,2.46,1.37,2.46,1.37c3,.07,4.2-1.49,5.93-3.87"/><path class="cls-14" d="M298,115.8s2.71,26.38,4.88,37.59,6,12.83,12.29,16.45,9.76,11,10.3,12.1,2.61,1.23,2.61,1.23a7.28,7.28,0,0,0,5.83-3.8"/><path class="cls-14" d="M288.23,127.72c-.68,1.05,5.11,27.84,8.13,35.61s3.37,9,11.36,11.2,14,5.86,16.22,4.57"/><path class="cls-14" d="M343.72,112.9s4.15,9.94,1.4,16.48"/><path class="cls-14" d="M359.08,101a142.66,142.66,0,0,0,21,6.51"/><path class="cls-14" d="M386.55,135.31s-3.18,5.82-8,7.07"/><path class="cls-14" d="M378.55,129s-1.15,3-2.36,3.84"/><path class="cls-14" d="M382.55,152.85s-7.23,5.47-14.18,6.89"/><path class="cls-14" d="M365.4,162.42s3,3.8,10.79,4.16"/><path class="cls-14" d="M342,145.84s7.08-6.79,11.12-5.85"/><path class="cls-14" d="M355.86,147.23s-5.35,4-6.33,4"/><path class="cls-14" d="M300.68,168.39s1.78.34,3.16-1.81"/><path class="cls-14" d="M307,158.7s4.29-2.66,7.11-3.18"/><path class="cls-14" d="M344.89,248.9c.88-.79,9.19-7.52,14.34-9.89"/><path class="cls-14" d="M355.66,245.72c-.59-.18-5.3,4.76-7.79,6.74"/><path class="cls-14" d="M358,260.37s15.82,30,19.38,42"/><path class="cls-14" d="M404.36,218c1.35,7.37,5.7,12.8,8.07,15.74"/><path class="cls-16" d="M354.47,127.72c-2.31,1.42.12,6.06,1.39,8.43s7,6.13,8.2,9.69,8.7,3.47,11,0,2-10.37-4.24-15.62S357.73,125.72,354.47,127.72Z"/></g><g id="Speech_bubble" data-name="Speech bubble"><path class="cls-14" d="M310.55,327a45.7,45.7,0,0,0-34.31,82.17"/><path class="cls-14" d="M329.61,335a45.23,45.23,0,0,0-14-6.82"/><path class="cls-14" d="M325,412a45.69,45.69,0,0,0,10.42-72"/><polyline class="cls-14" points="327.21 426.44 329.94 428.84 325.69 414.31"/><path class="cls-14" d="M295.22,417.1A45.66,45.66,0,0,0,315.4,416L324,423.6"/><path class="cls-14" d="M284.74,414a45.76,45.76,0,0,0,5.23,1.89"/><path class="cls-14" d="M306.49,349.83a23,23,0,1,1-8.14.07"/><path class="cls-14" d="M298.36,397.62a25.48,25.48,0,0,1-20.84-29.39"/><path class="cls-14" d="M326.6,381.15a25.51,25.51,0,0,1-20.29,16.57"/><path class="cls-14" d="M279.48,361.87a25.48,25.48,0,0,1,48.27,14.91"/><line class="cls-17" x1="317.92" y1="363.32" x2="318.21" y2="363.01"/><line class="cls-17" x1="313.84" y1="367.72" x2="315.87" y2="365.53"/><polyline class="cls-17" points="288.94 370.94 298.75 383.99 312.06 369.64"/></g></g></svg>