<svg id="Layer_1" data-name="Layer 1" xmlns="http://www.w3.org/2000/svg" viewBox="0 0 308.05 487.98"><defs><style>.cls-1{fill:#00a19a;}.cls-2{fill:#1d71b8;}.cls-3{fill:none;stroke:#1d1d1b;stroke-miterlimit:10;}</style></defs><path class="cls-1" d="M169.19,98.87,90.36,167a15,15,0,0,0-5.18,11.35v300A15,15,0,0,0,110,489.78l78.82-68.18A15,15,0,0,0,194,410.26v-300A15,15,0,0,0,169.19,98.87Z" transform="translate(-85.18 -95.19)"/><path class="cls-2" d="M369.7,183.34,200.51,300.06c-12.11,8.36-6.2,27.35,8.52,27.35H269.4a15,15,0,0,1,15,15V568.14a15,15,0,0,0,24.81,11.34L388,511.31A15,15,0,0,0,393.22,500V195.69A15,15,0,0,0,369.7,183.34Z" transform="translate(-85.18 -95.19)"/><path class="cls-3" d="M121.94,283.29" transform="translate(-85.18 -95.19)"/><path class="cls-3" d="M317.53,283.29" transform="translate(-85.18 -95.19)"/></svg>