<svg class="svg-icon" style="width: 1em;height: 1em;vertical-align: middle;fill: currentColor;overflow: hidden;" viewBox="0 0 1024 1024" version="1.1" xmlns="http://www.w3.org/2000/svg"><path d="M941.184 71.36s-144.896 54.784-227.072 29.568C582.016 60.48 512.768 0 512.768 0S443.52 60.48 311.552 100.928c-82.176 25.216-226.944-29.568-226.944-29.568s-19.648 302.208 10.56 529.28c30.208 227.072 417.6 398.72 417.6 398.72s387.712-171.648 417.856-398.72c30.208-227.072 10.56-529.28 10.56-529.28zM483.904 672.64L411.968 600.64l0.32-0.32-114.56-114.432 71.616-71.68 114.56 114.496 230.848-230.912 71.936 71.936-302.784 302.848z"  /></svg>